<?xml version="1.0" encoding="utf-8"?>
<!-- Generator: Adobe Illustrator 23.0.1, SVG Export Plug-In . SVG Version: 6.00 Build 0)  -->
<svg version="1.1" id="Capa_1" xmlns="http://www.w3.org/2000/svg" xmlns:xlink="http://www.w3.org/1999/xlink" x="0px" y="0px"
	 viewBox="0 0 16 16" style="enable-background:new 0 0 16 16;" xml:space="preserve">
<style type="text/css">
	.st0{fill:#28ABFA;}
	.st1{fill:#132144;}
</style>
<g>
	<g>
		<path class="st0" d="M13.93,10.18c0,0.8-0.02,1.51-0.05,2.12c-0.03,0.61-0.06,1-0.07,1.16c0,0.13-0.05,0.24-0.14,0.34
			s-0.22,0.14-0.36,0.14h-1.28c-0.11,0-0.22-0.05-0.31-0.14s-0.15-0.21-0.17-0.34l-0.02-1.06c0-0.03-0.01-0.06-0.04-0.07
			c-0.02-0.02-0.05-0.01-0.08,0.02c-0.32,0.45-0.82,0.83-1.49,1.13c-0.68,0.31-1.33,0.46-1.95,0.46c-1.08,0-2.07-0.26-2.99-0.8
			c-0.92-0.53-1.64-1.25-2.17-2.17c-0.53-0.92-0.8-1.91-0.8-2.99c0-1.08,0.27-2.07,0.8-2.98c0.53-0.91,1.25-1.63,2.17-2.17
			c0.92-0.54,1.91-0.81,2.99-0.81c1.04,0,2.01,0.25,2.89,0.76c0.88,0.51,1.59,1.19,2.13,2.05c0.54,0.86,0.83,1.81,0.88,2.86
			C13.9,8.58,13.93,9.41,13.93,10.18z M9.72,11.05c0.54-0.32,0.96-0.76,1.28-1.3c0.31-0.55,0.47-1.14,0.47-1.78
			c0-0.64-0.16-1.23-0.48-1.77c-0.32-0.54-0.75-0.96-1.29-1.28C9.16,4.6,8.57,4.45,7.92,4.45c-0.63,0-1.21,0.16-1.75,0.48
			C5.64,5.25,5.21,5.68,4.89,6.22C4.56,6.76,4.4,7.35,4.4,7.99c0,0.64,0.16,1.23,0.48,1.77c0.32,0.54,0.75,0.97,1.29,1.29
			c0.54,0.32,1.13,0.48,1.77,0.48C8.59,11.53,9.18,11.37,9.72,11.05z"/>
		<path class="st0" d="M7.91,5.55c-1.39,0-2.52,1.13-2.52,2.52c0,1.39,1.13,2.52,2.52,2.52c1.39,0,2.52-1.13,2.52-2.52
			C10.43,6.67,9.3,5.55,7.91,5.55z M8.27,7.49c-0.41,0-0.74-0.33-0.74-0.74C7.53,6.34,7.86,6,8.27,6c0.41,0,0.74,0.33,0.74,0.74
			C9.01,7.16,8.68,7.49,8.27,7.49z"/>
	</g>
	<g>
		<polygon class="st0" points="0.94,4.43 0,4.43 0,0.2 4.23,0.2 4.23,1.14 0.94,1.14 		"/>
	</g>
	<g>
		<polygon class="st0" points="15.76,4.43 14.82,4.43 14.82,1.14 11.53,1.14 11.53,0.2 15.76,0.2 		"/>
	</g>
	<g>
		<polygon class="st0" points="15.76,16 11.53,16 11.53,15.06 14.82,15.06 14.82,11.77 15.76,11.77 		"/>
	</g>
	<g>
		<polygon class="st0" points="4.23,16 0,16 0,11.77 0.94,11.77 0.94,15.06 4.23,15.06 		"/>
	</g>
</g>
</svg>
