<?xml version="1.0" encoding="utf-8"?>
<!-- Generator: Adobe Illustrator 23.0.1, SVG Export Plug-In . SVG Version: 6.00 Build 0)  -->
<svg version="1.1" xmlns="http://www.w3.org/2000/svg" xmlns:xlink="http://www.w3.org/1999/xlink" x="0px" y="0px"
	 viewBox="0 0 136 40.5" style="enable-background:new 0 0 136 40.5;" xml:space="preserve">
<style type="text/css">
	.st0{fill:#28ABFA;}
	.st1{fill:#377DFF;}
	.st2{fill:#FFFFFF;}
	.st3{fill:#F2F2F2;}
</style>
<g id="Capa_2">
</g>
<g id="Capa_1">
	<g>
		<g>
			<path class="st0" d="M22.85,30.3c0,0.14-0.05,0.27-0.15,0.38c-0.1,0.11-0.23,0.17-0.39,0.17h-1.7c-0.14,0-0.27-0.06-0.38-0.17
				c-0.11-0.11-0.17-0.24-0.17-0.38l-0.09-8.07c0-0.83-0.23-1.62-0.7-2.37c-0.47-0.75-1.37-1.12-2.7-1.12
				c-1.32,0-2.21,0.37-2.67,1.12c-0.47,0.75-0.7,1.54-0.7,2.37L13.1,30.3c-0.02,0.14-0.08,0.27-0.18,0.38
				c-0.1,0.11-0.22,0.17-0.36,0.17h-1.73c-0.14,0-0.26-0.06-0.36-0.17c-0.1-0.11-0.15-0.24-0.15-0.38l-0.12-8.41L10.31,8.6
				c0-0.16,0.06-0.29,0.17-0.39c0.11-0.1,0.24-0.15,0.38-0.15h1.64c0.16,0,0.29,0.05,0.39,0.15c0.1,0.1,0.15,0.22,0.15,0.36
				l0.12,8.86c0.77-1.05,1.9-1.58,3.4-1.58c1.38,0,2.54,0.3,3.51,0.9c0.96,0.6,1.68,1.38,2.15,2.35c0.47,0.97,0.71,2.01,0.71,3.13
				L22.85,30.3z"/>
			<path class="st0" d="M40.39,22.86c-0.02,0.41-0.21,0.76-0.58,1.06c-0.36,0.3-0.77,0.46-1.21,0.46h-9.29
				c-0.08,0-0.15,0.03-0.21,0.09c-0.06,0.06-0.08,0.14-0.06,0.24c0.26,1.09,0.81,1.9,1.65,2.43c0.84,0.53,1.83,0.79,2.96,0.79
				c0.59,0,1.21-0.13,1.87-0.39c0.66-0.26,1.23-0.62,1.71-1.06c0.1-0.1,0.23-0.15,0.39-0.15c0.18,0,0.31,0.05,0.39,0.15l1.21,1.18
				c0.12,0.08,0.18,0.21,0.18,0.39c0,0.16-0.06,0.3-0.18,0.42c-1.6,1.58-3.48,2.37-5.64,2.37c-1.42,0-2.71-0.33-3.87-1
				c-1.16-0.67-2.08-1.57-2.75-2.72c-0.67-1.14-1-2.42-1-3.84c0-0.49,0.02-0.86,0.06-1.12c0.16-1.27,0.6-2.39,1.31-3.34
				c0.71-0.95,1.6-1.68,2.69-2.2c1.08-0.52,2.26-0.77,3.54-0.77c0.2,0,0.51,0.02,0.91,0.06c1.09,0.12,2.09,0.51,3,1.17
				c0.91,0.66,1.63,1.45,2.15,2.38c0.53,0.93,0.79,1.83,0.79,2.7L40.39,22.86z M30.81,19.44c-0.8,0.65-1.31,1.43-1.53,2.34
				l-0.03,0.09c0,0.08,0.03,0.15,0.09,0.21s0.13,0.09,0.21,0.09h7.8c0.1,0,0.18-0.04,0.24-0.12c0.06-0.08,0.07-0.17,0.03-0.27
				c-0.28-0.93-0.74-1.71-1.37-2.35c-0.63-0.64-1.5-0.96-2.61-0.96C32.56,18.46,31.61,18.79,30.81,19.44z"/>
			<path class="st0" d="M47.58,12.64c0,0.51-0.19,0.95-0.56,1.32c-0.37,0.37-0.82,0.56-1.35,0.56c-0.53,0-0.98-0.18-1.35-0.55
				c-0.37-0.36-0.56-0.81-0.56-1.34c0-0.53,0.19-0.98,0.56-1.35c0.37-0.37,0.82-0.56,1.35-0.56c0.53,0,0.98,0.19,1.35,0.56
				C47.39,11.66,47.58,12.11,47.58,12.64z M46.55,15.85h-1.76c-0.14,0-0.27,0.05-0.38,0.15c-0.11,0.1-0.17,0.23-0.17,0.39
				l-0.09,4.86v4.19l0.09,4.89c0,0.14,0.06,0.26,0.17,0.36c0.11,0.1,0.24,0.15,0.38,0.15h1.76c0.14,0,0.26-0.05,0.36-0.15
				c0.1-0.1,0.15-0.22,0.15-0.36l0.12-4.89v-4.19l-0.12-4.86c0-0.16-0.05-0.29-0.15-0.39C46.81,15.9,46.69,15.85,46.55,15.85z"/>
			<path class="st0" d="M73.31,30.3c0,0.14-0.05,0.27-0.15,0.38c-0.1,0.11-0.23,0.17-0.39,0.17h-1.7c-0.14,0-0.27-0.06-0.38-0.17
				c-0.11-0.11-0.17-0.24-0.17-0.38l-0.09-8.07c0-1.11-0.33-1.98-1-2.61c-0.67-0.63-1.47-0.94-2.4-0.94c-0.91,0-1.7,0.31-2.37,0.94
				c-0.67,0.63-1,1.5-1,2.61l-0.09,8.07c0,0.14-0.05,0.27-0.15,0.38c-0.1,0.11-0.23,0.17-0.39,0.17h-1.7
				c-0.14,0-0.27-0.06-0.38-0.17c-0.11-0.11-0.17-0.24-0.17-0.38l-0.12-8.07c0-1.11-0.33-1.98-1-2.61
				c-0.67-0.63-1.46-0.94-2.37-0.94c-0.91,0-1.7,0.31-2.38,0.94c-0.68,0.63-1.02,1.5-1.02,2.61L53.8,30.3
				c0,0.14-0.05,0.27-0.15,0.38c-0.1,0.11-0.23,0.17-0.39,0.17h-1.7c-0.14,0-0.27-0.06-0.38-0.17c-0.11-0.11-0.17-0.24-0.17-0.38
				l-0.09-8.41l0.03-5.22c0-0.16,0.06-0.29,0.17-0.39c0.11-0.1,0.24-0.15,0.38-0.15h1.82c0.14,0,0.26,0.05,0.36,0.15
				c0.1,0.1,0.16,0.22,0.18,0.36v0.79c0.38-0.53,0.88-0.92,1.5-1.18c0.62-0.26,1.3-0.39,2.05-0.39c0.93,0,1.85,0.2,2.75,0.61
				c0.9,0.4,1.62,0.96,2.17,1.67c1.15-1.52,2.72-2.28,4.7-2.28c1.4,0,2.57,0.3,3.52,0.9c0.95,0.6,1.66,1.38,2.14,2.35
				c0.48,0.97,0.71,2.01,0.71,3.13L73.31,30.3z"/>
			<path class="st0" d="M91.37,13.73c0.04,2.17,0.06,4.2,0.06,6.1c0,1.92-0.02,3.22-0.06,3.88c-0.06,1.32-0.43,2.51-1.11,3.6
				c-0.68,1.08-1.58,1.94-2.7,2.58c-1.12,0.64-2.34,0.96-3.66,0.96c-1.36,0-2.61-0.33-3.75-1c-1.14-0.67-2.05-1.58-2.72-2.73
				c-0.67-1.15-1-2.41-1-3.76c0-1.36,0.33-2.6,1-3.75c0.67-1.14,1.57-2.05,2.72-2.73c1.14-0.68,2.39-1.02,3.75-1.02
				c0.79,0,1.6,0.19,2.44,0.56c0.84,0.37,1.47,0.84,1.9,1.41c0.04,0.04,0.08,0.05,0.12,0.03c0.04-0.02,0.06-0.05,0.06-0.09
				l0.03-8.25c0-0.16,0.06-0.3,0.18-0.42c0.12-0.12,0.26-0.18,0.42-0.18h1.61c0.16,0,0.3,0.06,0.42,0.18
				c0.12,0.12,0.18,0.26,0.18,0.42C91.3,10.16,91.33,11.57,91.37,13.73z M87.76,21.12c-0.4-0.68-0.95-1.22-1.62-1.62
				c-0.68-0.4-1.42-0.61-2.23-0.61c-0.81,0-1.55,0.2-2.23,0.61c-0.68,0.4-1.22,0.95-1.62,1.62c-0.4,0.68-0.61,1.42-0.61,2.23
				c0,0.81,0.2,1.56,0.61,2.25c0.4,0.69,0.95,1.23,1.64,1.62c0.69,0.39,1.43,0.59,2.22,0.59c0.81,0,1.55-0.2,2.23-0.61
				c0.68-0.4,1.22-0.95,1.62-1.62c0.4-0.68,0.61-1.42,0.61-2.23C88.37,22.54,88.16,21.8,87.76,21.12z"/>
			<path class="st0" d="M109.52,26.11c0,1.01-0.02,1.9-0.06,2.67c-0.04,0.77-0.07,1.25-0.09,1.46c0,0.16-0.06,0.3-0.18,0.42
				c-0.12,0.12-0.27,0.18-0.46,0.18h-1.61c-0.14,0-0.27-0.06-0.39-0.18c-0.12-0.12-0.19-0.26-0.21-0.42l-0.03-1.34
				c0-0.04-0.02-0.07-0.05-0.09c-0.03-0.02-0.07-0.01-0.11,0.03c-0.4,0.57-1.03,1.04-1.88,1.43c-0.85,0.38-1.67,0.58-2.46,0.58
				c-1.36,0-2.61-0.33-3.76-1c-1.15-0.67-2.06-1.58-2.73-2.73c-0.67-1.15-1-2.41-1-3.76c0-1.36,0.33-2.6,1-3.75
				c0.67-1.14,1.58-2.05,2.73-2.73c1.15-0.68,2.41-1.02,3.76-1.02c1.32,0,2.53,0.32,3.64,0.96c1.11,0.64,2.01,1.5,2.69,2.58
				c0.68,1.08,1.05,2.28,1.11,3.6C109.49,24.1,109.52,25.14,109.52,26.11z M104.22,27.2c0.68-0.4,1.21-0.95,1.61-1.64
				c0.39-0.69,0.59-1.44,0.59-2.25c0-0.81-0.2-1.55-0.61-2.23c-0.4-0.68-0.95-1.21-1.62-1.61c-0.68-0.39-1.42-0.59-2.23-0.59
				c-0.79,0-1.52,0.2-2.2,0.61c-0.68,0.4-1.22,0.95-1.62,1.62c-0.4,0.68-0.61,1.42-0.61,2.23c0,0.81,0.2,1.55,0.61,2.23
				c0.4,0.68,0.95,1.22,1.62,1.62c0.68,0.4,1.42,0.61,2.23,0.61C102.8,27.81,103.54,27.61,104.22,27.2z"/>
			<path class="st0" d="M115.89,8.21c0.1,0.1,0.15,0.22,0.15,0.36l0.09,4.86v12.02l-0.09,4.89c0,0.14-0.05,0.26-0.15,0.36
				c-0.1,0.1-0.22,0.15-0.36,0.15h-1.79c-0.14,0-0.26-0.05-0.36-0.15c-0.1-0.1-0.15-0.22-0.15-0.36l-0.09-4.89V13.43l0.09-4.86
				c0-0.14,0.05-0.26,0.15-0.36c0.1-0.1,0.22-0.15,0.36-0.15h1.79C115.67,8.05,115.79,8.11,115.89,8.21z"/>
			<path class="st0" d="M123.14,8.21c0.1,0.1,0.15,0.22,0.15,0.36l0.09,4.86v12.02l-0.09,4.89c0,0.14-0.05,0.26-0.15,0.36
				c-0.1,0.1-0.22,0.15-0.36,0.15h-1.79c-0.14,0-0.26-0.05-0.36-0.15c-0.1-0.1-0.15-0.22-0.15-0.36l-0.09-4.89V13.43l0.09-4.86
				c0-0.14,0.05-0.26,0.15-0.36c0.1-0.1,0.22-0.15,0.36-0.15h1.79C122.92,8.05,123.04,8.11,123.14,8.21z"/>
		</g>
		<path class="st2" d="M101.94,20.27c-1.75,0-3.18,1.42-3.18,3.18c0,1.75,1.42,3.18,3.18,3.18c1.75,0,3.18-1.42,3.18-3.18
			C105.12,21.69,103.7,20.27,101.94,20.27z M102.4,22.72c-0.52,0-0.93-0.42-0.93-0.93s0.42-0.93,0.93-0.93
			c0.51,0,0.93,0.42,0.93,0.93S102.92,22.72,102.4,22.72z"/>
		<g>
			<polygon class="st2" points="3.34,9.67 1.57,9.67 1.57,1.75 9.5,1.75 9.5,3.51 3.34,3.51 			"/>
		</g>
		<g>
			<polygon class="st2" points="133.5,9.67 131.74,9.67 131.74,3.51 125.58,3.51 125.58,1.75 133.5,1.75 			"/>
		</g>
		<g>
			<polygon class="st2" points="133.5,37.39 125.58,37.39 125.58,35.62 131.74,35.62 131.74,29.46 133.5,29.46 			"/>
		</g>
		<g>
			<polygon class="st2" points="9.5,37.39 1.57,37.39 1.57,29.46 3.34,29.46 3.34,35.62 9.5,35.62 			"/>
		</g>
	</g>
</g>
</svg>
