<?xml version="1.0" encoding="UTF-8" standalone="no"?>
<svg
   xmlns:dc="http://purl.org/dc/elements/1.1/"
   xmlns:cc="http://creativecommons.org/ns#"
   xmlns:rdf="http://www.w3.org/1999/02/22-rdf-syntax-ns#"
   xmlns:svg="http://www.w3.org/2000/svg"
   xmlns="http://www.w3.org/2000/svg"
   xmlns:sodipodi="http://sodipodi.sourceforge.net/DTD/sodipodi-0.dtd"
   xmlns:inkscape="http://www.inkscape.org/namespaces/inkscape"
   width="1920"
   height="698"
   viewBox="0 0 1920 698"
   fill="none"
   version="1.1"
   id="svg17"
   sodipodi:docname="abstract-bg-4.svg"
   inkscape:version="1.0.1 (3bc2e813f5, 2020-09-07)">
  <metadata
     id="metadata21">
    <rdf:RDF>
      <cc:Work
         rdf:about="">
        <dc:format>image/svg+xml</dc:format>
        <dc:type
           rdf:resource="http://purl.org/dc/dcmitype/StillImage" />
      </cc:Work>
    </rdf:RDF>
  </metadata>
  <sodipodi:namedview
     pagecolor="#ffffff"
     bordercolor="#666666"
     borderopacity="1"
     objecttolerance="10"
     gridtolerance="10"
     guidetolerance="10"
     inkscape:pageopacity="0"
     inkscape:pageshadow="2"
     inkscape:window-width="1490"
     inkscape:window-height="775"
     id="namedview19"
     showgrid="false"
     inkscape:zoom="0.5296875"
     inkscape:cx="960"
     inkscape:cy="349"
     inkscape:window-x="276"
     inkscape:window-y="-8"
     inkscape:window-maximized="1"
     inkscape:current-layer="svg17" />
  <rect
     width="1920"
     height="698"
     fill="#E5E5E5"
     id="rect2" />
  <g
     clip-path="url(#clip0)"
     id="g10">
    <path
       d="M1920 -714.403H0V1412.4H1920V-714.403Z"
       fill="#D9DEEA"
       id="path4" />
    <path
       d="M1298.9 -5488.72L2618.5 1300.02L1702.8 1842.02C1651.6 1690.56 1569.6 1565.26 1479.9 1480.46C1338.1 1346.44 1176.9 1292.52 1020.9 1221.67C933 1182.06 832 1111.56 811.9 957.132C799 858.54 824.8 759.075 837.2 660.308C869.8 400.128 798.7 110.284 668.3 -28.0949C635.9 -62.4714 599.1 -90.391 577.4 -144.661C510.4 -312.18 639.3 -526.467 627 -729.759C622.6 -803.224 599.6 -869.01 574.6 -928.689C300.4 -1585.86 -209.4 -1749.54 -628.8 -2103.6C-751.2 -2207.08 -871.1 -2334.11 -955 -2520.83C-1038.9 -2707.72 -1081.4 -2964.58 -1036.1 -3188.29C-974.1 -3494.19 -776.5 -3644.26 -593.7 -3703.76C-410.9 -3763.27 -215.6 -3771.47 -56 -3937.77C117.6 -4118.72 216 -4451.32 351 -4713.77C418.6 -4845.17 495.6 -4958.94 577.8 -5061.9L1298.9 -5488.72Z"
       fill="#C0CBDD"
       id="path6" />
    <path
       d="M1733.2 -6299.97L3053 487.553L2137.2 1029.55C2086 878.084 2004 752.968 1914.3 668.161C1772.5 534.145 1611.3 480.224 1455.2 409.552C1367.3 369.766 1266.3 299.443 1246.2 145.01C1233.4 46.4176 1259.2 -53.0476 1271.5 -151.815C1304.1 -411.994 1233 -701.664 1102.6 -840.217C1070.2 -874.594 1033.4 -902.514 1011.7 -956.783C944.7 -1124.3 1073.6 -1338.59 1061.3 -1541.71C1056.9 -1615.17 1033.8 -1680.96 1008.9 -1740.64C734.8 -2397.63 224.9 -2561.31 -194.5 -2915.37C-316.9 -3018.85 -436.8 -3145.71 -520.7 -3332.6C-604.6 -3519.32 -647.1 -3776.18 -601.8 -3999.89C-539.8 -4305.61 -342.2 -4455.86 -159.4 -4515.36C23.3999 -4574.87 218.7 -4583.07 378.3 -4749.37C551.8 -4930.15 650.2 -5262.75 785.2 -5525.02C852.8 -5656.42 929.8 -5770.19 1012 -5873.15L1733.2 -6299.97Z"
       fill="#8192B0"
       id="path8" />
  </g>
  <defs
     id="defs15">
    <clipPath
       id="clip0">
      <rect
         width="1920"
         height="698"
         fill="white"
         id="rect12" />
    </clipPath>
  </defs>
  <path
     style="fill:#8192b0;fill-opacity:1;stroke-width:1.88791"
     d="m 834.23284,687.40708 c 8.54283,-61.9937 10.68405,-93.64348 10.6634,-157.61782 C 844.87376,460.15052 841.06795,412.27963 830.52322,349 808.82823,218.8069 764.36549,100.04217 707.02065,19.111428 701.30973,11.051618 696.35398,3.820059 696.00787,3.0412979 695.66175,2.2625369 819.60761,1.6253687 971.44311,1.6253687 h 276.06459 l -1.2254,12.7433633 c -5.7541,59.838552 -5.8076,93.589048 -0.2126,133.987818 15.6919,113.30391 76.15,195.03966 184.9627,250.05857 25.1888,12.73619 47.6083,22.8125 135.5704,60.93126 166.0468,71.95717 259.1995,127.67717 340.6031,203.73439 l 11.8501,11.07191 v 11.11098 11.11097 H 1376.0266 832.9971 Z"
     id="path846" />
  <path
     style="fill:#c0cbdd;fill-opacity:1;stroke-width:1.88791"
     d="M 1902.0649,655.5304 C 1816.1227,578.44612 1731.275,528.65028 1557.0145,453.02552 1461.0552,411.38154 1448.6538,405.7882 1426.6066,394.20828 1370.7605,364.87598 1327.2394,327.42921 1297.762,283.34661 1252.0549,214.99308 1236.4559,134.87173 1247.2319,23.80826 l 2.1524,-22.1828913 h 334.8358 334.8359 V 335.78466 c 0,183.78761 -0.2123,334.15472 -0.4719,334.14914 -0.2596,-0.006 -7.6932,-6.48713 -16.5192,-14.4034 z"
     id="path848" />
</svg>
